<svg xmlns="http://www.w3.org/2000/svg" width="2761" height="2219" viewBox="0 0 2761 2219"><clipPath id="a"><path d="M0 0h2761v2219H0z"/></clipPath><g fill="#b68c54" clip-path="url(#a)"><path d="M881.656 1229.554c89.074-3.623 212.79-3.605 268.381 77.917 52.058 76.338 36.173 197.345-41.439 250.675-19.06 13.544-43.456 23.791-64.199 30.36-28.379 8.984-170.96 10.427-189.921-.531-9.079-19.196-5.46-318.509-3.026-357.86zm21.902 350.069c26.23 13.342 64.264 9.056 93.02 7.448 27.16-1.521 51.358-12.28 73.524-27.462 35.978-31.374 52.932-70.794 56.228-118.04 8.272-118.565-31.472-192.223-156.8-199.3a524 524 0 0 0-37.87-.644c-7.264.262-23.904.717-26.847 6.8-5.641 11.652-4.527 46.891-4.699 59.531a7563 7563 0 0 0-.28 94.076q-.139 55.668.796 111.331c.358 19.184.362 44.534 2.562 63.365q.169 1.448.366 2.895"/><path d="M1398.657 1674.03c5.949-.728 8.01-1.138 11.107 4.217.914 11.104-47.774 96.082-56.488 112.7 52.656 3.507 108.956 1.173 161.906.644 19.462-.192 40.167-1.41 59.472-3.523 11.172-1.22 32.485-17.535 43.548-12.337l.84 2.887c-10.191 31.3-114.461 27.887-142.162 27.807l-130.597-1.52c-31.306 50.444-52.633 106.575-75.241 161.246-9.921 23.989-22.71 49.41-28.206 74.846-3.53 16.352-3.047 34.466-.973 50.976 1.46 11.635 4.31 28.479 14.568 35.762 31.868 22.634 134.775-74.71 155.786-96.888 20.612-21.757 37.776-46.155 58.005-67.983 3.255-3.513 6.38-7.138 11.3-7.938 5.314 1.298 3.352.295 7.234 4.16 5.069 14.758-28.377 70.16-29.218 90.451-1.166 5.294-.642 18.56 4.072 22.348 41.439 33.287 149.972-68.477 171.544-88.192 2.418-11.11 2.58-20.677 14.403-24.912 2.6.234 3.812.002 6.057 1.493 13.52 8.976 14.971 82.621 18.3 101.19 40.689-25.384 60.569-62.502 90.097-98.245 1.202-11.92 4.759-33.28 22.276-35.196 10.088-1.103 10.918 14.699 10.719 22.545 53.222 31.625 116.382 2.633 169.977-11.008 14.395-3.662 50.051-1.424 52.806 17.095-10.403 8.36-34.59-12.455-56.16-2.7-28.668 13.412-56.716 42.853-71.204 70.707-4.005 7.7-6.332 25.3 4.328 28.756 36.994 11.994 96.6-91.542 119.297-84.536 12.35 13.073-15.488 68.78 11.114 79.53 56.997 23.035 127.61-36.23 178.386-52.803-36.258 32.462-105.118 65.485-154.129 71.84-15.953 2.07-35.81-.28-48.432-11.16-14.815-12.772-15.75-28.992-17.017-47.112-16.625 15.46-31.088 29.014-49.19 42.611-22.267 17.033-82.92 46.526-73.703-9.432 5.202-31.586 27.038-47.113 41.628-73.11l.975-1.769c-11.57.24-29.558 3.216-41.829 4.451-33.108 3.333-53.291.094-84.063-9.066-32.582 35.716-66.355 92.628-111.35 113.823-23.157 10.909-29.021-67.014-30.868-80.157-45.199 34.84-114.761 102.915-178.557 94.975-31.157-3.879-23.479-51.18-19.097-73.01-41.835 36.106-125.328 135.933-188.747 121.691-48.684-10.934-32.95-89.964-22.001-125.707l-1.036-1.616c-3.008-.44-6.031.505-8.433 2.227-30.62 21.425-62.363 43.65-99.183 52.938-44.148 11.136-58.944-8.404-68.477-47.236-9.102 7.976-17.56 17.013-27.034 24.797-17.088 14.042-68.39 53.596-81.438 15.305-3.843-11.281-.009-25.44 5.485-35.645 20.18-38.38 79.334-90.084 125.996-70.156 4.497 1.92 9.362 7.359 10.775 12.4l-1.707 2.095c-10.178 1.681-26.401-5.634-38.24-8.345-27.8 10.044-59.462 40.473-72.341 67.05-3.457 7.13-8.738 19.443-6.045 27.188 18.012 16.335 65.476-31.623 78.138-44.954 7.804-8.218 26.685-32.826 38.574-30.787 6.933 11.704-10.929 46.348-2.817 65.014 9.128 21.01 31.253 16.888 49.49 9.843 28.065-10.844 75.992-36.599 95.868-58.485 17.298-19.052 32.284-69.48 43.296-94.83a4437 4437 0 0 1 43.502-94.803c-46.974 3.337-97.923 7.03-139.225 32.054-8.1 4.91-44.17 30.277-52.16 17.75.611-2.768 1.255-4.276 3.323-6.391 39.358-40.27 143.617-53.057 195.983-56.33 17.968-35.793 45.467-96.625 77.193-119.53"/><path d="M343.38 1231.117c11.673-.932 27.968-1.142 39.472-.568 4.102 24.751 1.666 98.81 1.653 127.788-.034 77.979 1.628 159.217-.838 237.081-15.078.603-32.387.197-47.627.176-3.112-20.39-1.9-73.565-1.82-96.522l.485-180.394c-.407-11.218-2.043-18.66-5.413-29.206-16.063 20.963-30.447 49.97-42.72 73.658l-51.57 99.458c-17.084 32.785-35.511 69.38-58.153 98.343-18.846-13.889-33.675-50.946-45.968-72.122-38.832-66.893-71.56-136.48-112.936-201.998-2.762 22.619-2 50.306-1.868 73.41l1.59 140.409c.034 17.342 2.666 86.567-9.187 96.205l-2.553-1.107c-5.816-7.7-4.326-36.238-4.419-47.086l-.278-73.043a6607 6607 0 0 1 3.6-244.229c5.803.035 12.327-.268 18.194-.405 4.499.574 18.121.527 23.3.646 13.627 17.115 29.342 53.011 40.274 73.112 34.147 62.786 68.5 141.862 110.287 199.181 53.22-90.09 93.989-183.063 146.496-272.787"/><path d="m2286.862 753.124.586 1.355c-12.202 11.788-51.991 32.869-68.505 41.755a1779.4 1779.4 0 0 1-398.96 156.826 1837.94 1837.94 0 0 1-1066.67-47.722A1563.4 1563.4 0 0 1 479.411 779.92c-9.833-6.208-18.027-11.979-27.428-18.736 37.94 12.872 66.556 32.384 101.689 48.114 42.078 18.838 89.273 37.916 132.597 53.986a1885 1885 0 0 0 351.96 89.556 2012 2012 0 0 0 234.354 20.003c243.56 8.31 494.44-18.086 726.5-94.509a1602 1602 0 0 0 183.538-73.87c35.043-16.628 69.068-35.201 104.241-51.339"/><path d="M2602.839 1221.576c4.03 4.888 25.854 56.994 30.557 67.833a16267 16267 0 0 1 81.443 192.496c15.214 36.882 30.97 78.323 47.18 114.122l-51.254-.29c-8.539-14.426-18.638-40.956-25.551-57.395a4451 4451 0 0 0-36.452-84.567c-14.044.035-23.493 1.211-37.038 3.355-45.88 9.437-102.4 53.407-129.793 91.82-8.495 11.903-16.535 32.907-25.66 45.359-1.668 2.275-2.47 1.653-5.59 1.89l-1.93-1.936c-1.755-11.047 15.344-47.095 20.285-59.146 13.09-32.41 26.505-64.702 40.18-96.868a13201 13201 0 0 1 55.979-132.033c11.768-27.438 24.424-58.084 37.644-84.64m-108.403 290.762a2187 2187 0 0 1 35.975-29.519c33.96-24.673 71.3-39.183 113.518-41.378-8.279-19.963-51.688-130.475-62.069-141.306a3279 3279 0 0 0-53.53 125.978c-9.448 23.937-23.73 64.765-33.894 86.225"/><path d="M2056.473 1230.837q24.151-.42 48.307-.193c10.096 6.092 24.426 24.266 31.888 34.087 44.046 57.978 91.269 113.386 135.306 171.364 20.957 27.6 42.954 57.054 67.746 81.236q.846-81.24.585-162.479c-.216-34.223-.932-68.49-.498-102.698.087-6.891.628-18.363 7.758-20.985l3.1 1.508c4.55 11.076 2.448 42.209 2.405 55.807l-.087 96.188c.109 74.562 1.843 150.307-1.755 224.606l-14.867-16.2c-40.331-47.483-77.91-97.955-117.418-146.18-43.214-52.726-84.566-107.217-127.84-159.862-4.72 31.909-4.086 70.605-3.6 103.19l2.683 128.606c.275 17.694 4.969 68.313-7.872 79.059l-2.862-.553c-5.395-8.484-4.61-25.351-4.45-35.421 1.565-98.605-2.039-197.38.21-295.94-5.183-8.674-16.253-26.472-18.74-35.14"/><path d="M1622.357 1226.7c52.879-3.038 123.562 15.469 153.044 62.607-71.335 48.11-75.032-61.898-153.309-51.691a122.17 122.17 0 0 0-81.536 46.27c-32.753 42.767-41.526 110.485-34.086 162.974 13.376 94.381 78.17 151.607 174.238 137.775 40.895-8.644 65.558-29.518 96.986-55.338-35.245 60.595-96.817 81.702-165.564 73.92-153.297-17.35-210.565-192.806-119.371-309.06 29.23-37.266 81.531-62.845 129.598-67.456"/><path d="M952.188 1677.291c33.257-3.731 57.835 13.128 38.407 47.358-13.218 23.29-35.445 40.152-57.739 54.006 13.773-18.461 80.925-81.973 17.015-91.547-13.434-2.013-39.495 5.333-53.306 9.855-70.575 23.111-144.539 66.527-184.45 130.94-35.553 69.895 69.068 99.931 114.694 122.533 42.534 21.07 102.753 59.53 71.426 114.712-40.671 71.64-121.676 113.284-197.554 137.424-41.532 13.197-97.543 25.44-137.911 4.399-22.665-16.23-25.049-39.59-9.972-62.078 19.975-29.792 50.23-40.583 83.745-47.4-15.396 9.796-35.1 19.554-47.81 32.097-11.372 11.374-19.403 26.795-19.347 42.97.113 32.266 45.85 32.764 69.528 30.684 77.269-6.783 235.58-72.82 235.45-163.573-.082-55.891-142.24-93.506-177.057-126.175-11.538-10.775-23.53-21.714-24.572-40.222-2.369-24.324 12.093-51.202 27.103-68.863 57.834-68.04 164.457-118.805 252.35-127.12"/><path d="M532.136 1230.81c26.659-1.026 59.483-.787 86.309-.761 31.81.03 84.7-1.92 114.29 5.783-29.73 8.987-127.133 6.35-164.76 6.356l.052 159.896q43.083-.361 86.166-.221c11.954.102 56.377-1.441 62.764 6.704-7.982 7.806-49.111 5.407-61.338 5.35a4098 4098 0 0 0-87.74.061l-.003 48.942.977 122.131c49.782.28 121.408-3.116 167.9 6.655-29.36 5.064-62.141 4.451-92.074 4.577l-127.63-.542c-.984-89.135-.863-178.28.366-267.413.44-30.754-.332-64.953 1.233-95.293 3.337-2.27 8.818-1.866 13.488-2.226"/><path d="M1897.68 1230.45c5.557-.508 41.177-2.61 42.02 5.573 3.845 49.416 4.135 112.387 1.684 161.1-1.701 33.793 5.797 179.63-2.856 197.797l-46.584.026c-3.032-69.905-.98-150.5-.594-221.19l.156-81.888c.035-16.152-2.405-48.805 6.175-61.419"/><path d="M1304.746 1229.383c16.172-.593 36.272-2.776 35.423 17.47-1.422 33.836 4.47 332.688-3.869 346.175l-5.65 1.237c-13.143.445-25.722.217-38.861.016-3.269-93.597-1.91-189.031-1.734-282.754.024-12.86.13-70.533 2.236-77.812 3.847-3.313 7.362-3.38 12.455-4.332"/><path d="M1362.025 665.77c21.026 15.746 50.244 99.682 55.723 127.76 7.86 40.284-3.988 80.064-49.2 87.761-27.018-1.031-53.029-14.194-59.058-42.313-12.53-58.459 23.586-124.636 52.535-173.207m2.33 196.686c61.37-18.55 27.896-98.633 10.38-139.182-1.807-4.187-8.818-17.8-11.317-20.79-22.172 37.47-69.233 149.043.937 159.972"/><path d="M2403.544 633.22c21.802-3.558 42.455 10.935 46.508 32.638s-9.97 42.67-31.576 47.223a40.64 40.64 0 0 1-39.031-13.091 40.6 40.6 0 0 1-7.564-40.467 40.63 40.63 0 0 1 31.663-26.303"/><path d="M312.006 634.692a39.86 39.86 0 0 1 38.394 12.014 39.84 39.84 0 0 1 8.366 39.341 39.86 39.86 0 0 1-30.185 26.591c-21.353 4.178-42.115-9.539-46.64-30.82s8.857-42.257 30.065-47.126"/><path d="M1505.87 1882.577c23.737 4.076 9.906 26.452-4.159 35.324-23.431-7.314-7.62-25.362 4.159-35.324"/><path d="M1363.77 0h1.118c25.15 26.771 51.343 73.558 68.262 106.1 59.192 113.847 58.885 221.014 18.061 342.088 67.172-79.837 127.951-118.506 229.28-147 18.81-5.29 38.919-11.936 58.632-12.408 5.541-.133 7.942 1.248 11.49 5.129 7.668 23.312-15.053 74.54-23.898 97.066-30.275 77.1-74.664 117.301-139.378 166.017 79.841 3.81 147.614 29.242 205.738 84.838-27.437 19.358-93.413 45.247-126.397 53.28-109.26 26.608-197.793 1.23-291.372-54.66 12.636-12.183 26.732-23.005 42.407-30.971-12.216.622-28.412 2.748-37.817-5.647-6.118-7.166-8.14 5.762-15.999 4.787-6.39-.793-6.757-5.912-12.91-7.624-2.18 4.094-2.303 4.369-5.303 7.856-6.011 1.627-25.57 1.19-34.252 1.792 13.185 11.001 26.095 19.446 38.845 31.274-37.644 21.139-67.534 37.775-109.383 49.654-112.936 32.058-209.04 5.242-308.553-48.842 55.545-57.44 128.73-78.787 205.638-87.715a701 701 0 0 1-23.66-16.214c-85.408-61.438-125.553-152.01-141.881-253.128 70.269 6.778 173.735 45.802 229.542 89.534 24.028 18.829 50.905 46.817 72.31 69.098-19.266-63.456-32.444-132.164-24.226-198.693 11.08-89.702 55.88-177.03 113.706-245.611m-229.517 577.943c-56.72 3.398-109.98 19.622-153.283 58.238 58.477 35.664 124.351 57.834 193.855 49.348 49.258-3.872 106.526-23.815 149.773-47.346-51.792-28.173-103.878-52.268-163.39-59.142-5.203-.6-22.423-1.822-26.955-1.098m231.073 9.628c19.136-33.905 42.002-73.932 55.798-110.74 32.707-87.258 44.295-187.705 18.913-279.046-11.51-41.42-44.115-116.83-77.316-149.375l-.87-.454c-114.512 150.227-114.156 341.374-21.455 501.67 6.92 11.967 13.996 27.751 23.46 37.641zm41.425 48.883c59.542 37.59 108.464 46.716 176.908 49.947 62.15-4.501 110.772-16.686 164.52-50.463-41.519-30.143-81.974-52.883-134.437-57.724-9.802-.904-31.377-2.306-41.051-.332-54.126 6.124-120.78 27.129-165.94 58.572m4.456-42.489c102.976-19.563 194.08-53.405 256.723-143.153 15.784-22.613 53.78-99.222 50.509-124.114-3.81-5.19-9.557-3.3-15.392-2.547-146.202 25.76-236.189 107.9-297.05 240.229-4.02 8.739-11.098 17.175-11.917 27.245 3.82 4.802 11.414 2.88 17.127 2.34m-404.345-271.647c12.285 47.184 24.068 82.95 50.935 123.904 47.904 73.02 123.244 114.465 205.976 136.82 23.37 6.314 46.942 10.282 70.87 17.015-5.787-40.538-62.546-125.683-90.008-158.112-53.838-63.569-155.513-113.312-237.773-119.627"/></g></svg>